<?xml version="1.0" encoding="UTF-8"?>
<svg id="Layer_1" xmlns="http://www.w3.org/2000/svg" version="1.1" viewBox="0 0 1080 352">
  <!-- Generator: Adobe Illustrator 29.0.1, SVG Export Plug-In . SVG Version: 2.1.0 Build 192)  -->
  <defs>
    <style>
      .st0, .st1 {
        fill: #f7941d;
      }

      .st0, .st2 {
        fill-rule: evenodd;
      }

      .st3, .st2, .st4 {
        fill: #fff;
      }

      .st4 {
        font-family: Montserrat-ExtraBold, Montserrat;
        font-size: 37.28px;
        font-weight: 700;
      }
    </style>
  </defs>
  <path class="st3" d="M669.55,232.62c15.47,0,28.95-7.05,36.76-20.58,3.88-6.72,5.82-14.62,5.82-23.7v-11.35c0-9.08-1.99-16.7-5.96-22.85-8.14-12.6-21.78-19.16-36.62-19.16-16.78,0-30.38,8.24-37.89,23.28-3.69,7.38-5.54,15.99-5.54,25.83s1.89,18.4,5.68,25.69c7.64,14.71,21.19,22.85,37.75,22.85M660.75,265.83c-20.49,0-39.39-7.54-53.36-22.71-14.21-15.43-20.72-35.43-20.72-56.2v-5.96c0-30.41,14.27-60.09,43-73.1,8.99-4.07,18.97-6.1,29.95-6.1,23.71,0,42.72,9.97,53.93,31.23,5.49,10.41,8.52,23.47,9.08,39.17l-11.64-13.63V53.5h39.46v207.22h-31.23v-65.57h6.81c-.57,15.71-3.79,28.81-9.65,39.31-5.86,10.5-13.58,18.36-23.13,23.56-9.56,5.2-20.39,7.81-32.5,7.81ZM340.44,260.72V106.58h31.23v65.29h-.85c0-37.77,14.11-67.28,55.92-67.28h5.68v34.35h-10.79c-13.25,0-23.51,3.55-30.8,10.65-7.29,7.1-10.93,17.36-10.93,30.8v80.33h-39.46ZM224.99,257.31l-49.96-150.73h39.74l47.4,150.73h-37.19ZM238.33,257.31v-31.22h32.93v31.22h-32.93ZM190.36,321.47v-33.78h28.95c16.11,0,24.82-5.93,28.67-21.86l41.44-159.25h37.75l-45.7,167.76c-5.07,19.31-14.17,35.64-33.92,42.58-8.61,3.03-19.25,4.54-31.93,4.54h-25.26Z"/>
  <path class="st0" d="M665.04,14.65c-.76-.45-1.71-.29-2.58-.3-10.63-.08-15.56,7.01-15.56,7.01-.34.66-23.79,38.82-23.79,38.82-.39.64-1.3,1.33-2.02,1.53l-49.09,14.01c-.72.21-1.38.98-1.48,1.72l-.63,4.94c-.1.74.42,1.48,1.16,1.63l29.89,6.39c.73.16,1.01.8.61,1.44l-14.49,23.45c-.39.64-1.31,1.28-2.04,1.44,0,0-16.83,3.59-20.79,4.39-.79.1-1.21.63-1.4,1.25-.42,1.41-.76,3.66-.76,3.66-.11.74.4,1.44,1.14,1.56l13.38,2.21c.74.12,1.89-.11,2.51-.52l25.56-16.56c.63-.41,1.48-1.25,1.88-1.88,0,0,51.89-78.81,52.04-79.54,0,0,6.75-10.29,7.16-14.89.08-.88.06-1.32-.7-1.77"/>
  <path class="st3" d="M69.34,124.47v28.95h35.77v-28.95h-35.77ZM32.44,153.42v-2.08,109.38h36.9V101.47c0-11.61,6.65-17.88,18.17-17.88h16.46v-30.09h-13.63c-19.11,0-33.54,4.21-43.29,12.63-9.75,8.42-14.62,21.43-14.62,39.03v46.18-26.88h8.94l27.96-14.48h-36.9v14.48H13.42v28.95h19.02Z"/>
  <polyline class="st3" points="124.3 260.72 124.3 53.5 163.76 53.5 163.76 260.72 124.3 260.72 124.3 83.02 163.76 83.02 163.76 53.5 124.3 53.5"/>
  <polyline class="st3" points="124.3 53.5 124.3 260.72 163.76 260.72 163.76 53.5 124.3 53.5 124.3 231.2 163.76 231.2 163.76 260.72 124.3 260.72"/>
  <path class="st3" d="M903.08,260.68V106.45h31.24v66.18h-2.84c0-38.01,12.34-71.01,55.67-71.01h1.7c43.24,0,55.95,32.67,55.95,70.72v88.33h-39.48v-91.74c0-9.47-2.7-17.14-8.1-23.01-5.4-5.87-12.83-8.81-22.3-8.81s-17.47,2.98-23.43,8.95c-5.97,5.97-8.95,13.96-8.95,24v90.61h-39.48ZM850.91,87.99c-7.76,0-13.49-2.04-17.19-6.11-3.69-4.07-5.54-9.23-5.54-15.48s1.85-11.36,5.54-15.34c3.69-3.98,9.42-5.96,17.19-5.96s13.44,1.99,17.04,5.96c3.6,3.98,5.4,9.09,5.4,15.34s-1.8,11.41-5.4,15.48c-3.6,4.07-9.28,6.11-17.04,6.11ZM814.83,135.99v-29.54h61.07v29.54h-61.07ZM836.42,260.68V106.45h39.48v154.23h-39.48Z"/>
  <path class="st1" d="M790.25,260.68c-6.68,0-11.62-1.75-14.79-5.26-3.18-3.5-4.77-7.95-4.77-13.33s1.59-9.78,4.77-13.2c3.18-3.42,8.11-5.14,14.79-5.14s11.57,1.71,14.67,5.14c3.1,3.42,4.65,7.82,4.65,13.2s-1.55,9.82-4.65,13.33c-3.1,3.5-7.99,5.26-14.67,5.26"/>
  <path class="st3" d="M487.68,264.69c-19.04,0-38.38-6.13-48.97-22.99-4.64-7.38-6.95-16.27-6.95-26.68,0-11.36,2.79-20.63,8.37-27.82,13.47-17.35,38.5-21.57,59.18-21.57h35.77v23.56h-36.33c-9.08,0-16.04,2.22-20.86,6.67-4.82,4.45-7.24,10.17-7.24,17.17s2.41,12.68,7.24,17.03c4.83,4.35,11.78,6.53,20.86,6.53,5.49,0,10.55-.99,15.19-2.98,4.64-1.99,8.52-5.39,11.64-10.22,3.12-4.83,4.87-11.4,5.25-19.73l9.65,11.07c-2.83,32.3-20.78,49.96-52.8,49.96M537.36,260.72v-45.7h-6.53v-50.81c0-18.01-8.77-26.4-26.68-26.4-12.32,0-24.73.47-37.05,1-6.72.28-12.73.61-18.03.99v-33.49c10.53-.92,21.08-1.67,31.65-1.85,18.7-.3,38.26-.9,55.92,6.1,24.07,9.54,31.93,30,31.93,54.5v95.66h-31.22Z"/>
  <path class="st2" d="M498.29,236.33c-2.13-.27-.2-.61,5.02-2.77,5.23-2.17,13.75-6.17,18.07-8.27,4.32-2.1,4.45-2.31,7.7-7.32,3.25-5.01,9.61-14.83,17.58-28.99,7.96-14.16,17.53-32.66,23.51-46.95.69-1.65,1.33-3.24,1.93-4.78v27.96c-3.95,10.46-8.95,21.03-13.64,30.8-6.94,14.47-13.17,27.21-20.66,33.75-7.49,6.54-16.24,6.9-23.71,6.97-7.47.07-13.67-.14-15.8-.41"/>
  <text class="st4" transform="translate(432.41 316.23) scale(1.03 1)"><tspan x="0" y="0">India’s Largest Aviation Portal</tspan></text>
</svg>