<?xml version="1.0" encoding="UTF-8"?>
<svg id="Layer_1" data-name="Layer 1" xmlns="http://www.w3.org/2000/svg" viewBox="0 0 1034.96 320.47">
  <defs>
    <style>
      .cls-1 {
        fill: #1e347d;
      }

      .cls-2, .cls-3 {
        fill: #f7941d;
      }

      .cls-2, .cls-4 {
        fill-rule: evenodd;
      }

      .cls-4 {
        fill: #fff;
      }
    </style>
  </defs>
  <path class="cls-1" d="M656.13,218.29c15.47,0,28.95-7.05,36.76-20.58,3.88-6.72,5.82-14.62,5.82-23.7v-11.35c0-9.08-1.99-16.7-5.96-22.85-8.14-12.6-21.78-19.16-36.62-19.16-16.78,0-30.38,8.24-37.89,23.28-3.69,7.38-5.54,15.99-5.54,25.83s1.89,18.4,5.68,25.69c7.64,14.71,21.19,22.85,37.75,22.85M647.33,251.5c-20.49,0-39.39-7.54-53.36-22.71-14.21-15.43-20.72-35.43-20.72-56.2v-5.96c0-30.41,14.27-60.09,43-73.1,8.99-4.07,18.97-6.1,29.95-6.1,23.71,0,42.72,9.97,53.93,31.23,5.49,10.41,8.52,23.47,9.08,39.17l-11.64-13.63V39.17h39.46v207.22h-31.23v-65.57h6.81c-.57,15.71-3.79,28.81-9.65,39.31-5.86,10.5-13.58,18.36-23.13,23.56-9.56,5.2-20.39,7.81-32.5,7.81ZM327.02,246.39V92.25h31.23v65.29h-.85c0-37.77,14.11-67.28,55.92-67.28h5.68v34.35h-10.79c-13.25,0-23.51,3.55-30.8,10.65-7.29,7.1-10.93,17.36-10.93,30.8v80.33h-39.46ZM211.57,242.98l-49.96-150.73h39.74l47.4,150.73h-37.19ZM224.91,242.98v-31.22h32.93v31.22h-32.93ZM176.94,307.14v-33.78h28.95c16.11,0,24.82-5.93,28.67-21.86l41.44-159.25h37.75l-45.7,167.76c-5.07,19.31-14.17,35.64-33.92,42.58-8.61,3.03-19.25,4.54-31.93,4.54h-25.26Z"/>
  <path class="cls-2" d="M651.62.32c-.76-.45-1.71-.29-2.58-.3-10.63-.08-15.56,7.01-15.56,7.01-.34.66-23.79,38.82-23.79,38.82-.39.64-1.3,1.33-2.02,1.53l-49.09,14.01c-.72.21-1.38.98-1.48,1.72l-.63,4.94c-.1.74.42,1.48,1.16,1.63l29.89,6.39c.73.16,1.01.8.61,1.44l-14.49,23.45c-.39.64-1.31,1.28-2.04,1.44,0,0-16.83,3.59-20.79,4.39-.79.1-1.21.63-1.4,1.25-.42,1.41-.76,3.66-.76,3.66-.11.74.4,1.44,1.14,1.56l13.38,2.21c.74.12,1.89-.11,2.51-.52l25.56-16.56c.63-.41,1.48-1.25,1.88-1.88,0,0,51.89-78.81,52.04-79.54,0,0,6.75-10.29,7.16-14.89.08-.88.06-1.32-.7-1.77"/>
  <path class="cls-1" d="M55.92,110.14v28.95h35.77v-28.95h-35.77ZM19.02,139.09v-2.08,109.38h36.9V87.14c0-11.61,6.65-17.88,18.17-17.88h16.46v-30.09h-13.63c-19.11,0-33.54,4.21-43.29,12.63-9.75,8.42-14.62,21.43-14.62,39.03v46.18-26.88h8.94l27.96-14.48H19.02v14.48H0v28.95h19.02Z"/>
  <polyline class="cls-1" points="110.88 246.39 110.88 39.17 150.34 39.17 150.34 246.39 110.88 246.39 110.88 68.69 150.34 68.69 150.34 39.17 110.88 39.17"/>
  <polyline class="cls-1" points="110.88 39.17 110.88 246.39 150.34 246.39 150.34 39.17 110.88 39.17 110.88 216.87 150.34 216.87 150.34 246.39 110.88 246.39"/>
  <path class="cls-1" d="M889.66,246.35V92.12h31.24v66.18h-2.84c0-38.01,12.34-71.01,55.67-71.01h1.7c43.24,0,55.95,32.67,55.95,70.72v88.33h-39.48v-91.74c0-9.47-2.7-17.14-8.1-23.01-5.4-5.87-12.83-8.81-22.3-8.81s-17.47,2.98-23.43,8.95c-5.97,5.97-8.95,13.96-8.95,24v90.61h-39.48ZM837.49,73.66c-7.76,0-13.49-2.04-17.19-6.11-3.69-4.07-5.54-9.23-5.54-15.48s1.85-11.36,5.54-15.34c3.69-3.98,9.42-5.96,17.19-5.96s13.44,1.99,17.04,5.96c3.6,3.98,5.4,9.09,5.4,15.34s-1.8,11.41-5.4,15.48c-3.6,4.07-9.28,6.11-17.04,6.11ZM801.41,121.66v-29.54h61.07v29.54h-61.07ZM823,246.35V92.12h39.48v154.23h-39.48Z"/>
  <path class="cls-3" d="M776.83,246.35c-6.68,0-11.62-1.75-14.79-5.26-3.18-3.5-4.77-7.95-4.77-13.33s1.59-9.78,4.77-13.2c3.18-3.42,8.11-5.14,14.79-5.14s11.57,1.71,14.67,5.14c3.1,3.42,4.65,7.82,4.65,13.2s-1.55,9.82-4.65,13.33c-3.1,3.5-7.99,5.26-14.67,5.26"/>
  <path class="cls-1" d="M474.26,250.36c-19.04,0-38.38-6.13-48.97-22.99-4.64-7.38-6.95-16.27-6.95-26.68,0-11.36,2.79-20.63,8.37-27.82,13.47-17.35,38.5-21.57,59.18-21.57h35.77v23.56h-36.33c-9.08,0-16.04,2.22-20.86,6.67-4.82,4.45-7.24,10.17-7.24,17.17s2.41,12.68,7.24,17.03c4.83,4.35,11.78,6.53,20.86,6.53,5.49,0,10.55-.99,15.19-2.98,4.64-1.99,8.52-5.39,11.64-10.22,3.12-4.83,4.87-11.4,5.25-19.73l9.65,11.07c-2.83,32.3-20.78,49.96-52.8,49.96M523.94,246.39v-45.7h-6.53v-50.81c0-18.01-8.77-26.4-26.68-26.4-12.32,0-24.73.47-37.05,1-6.72.28-12.73.61-18.03.99v-33.49c10.53-.92,21.08-1.67,31.65-1.85,18.7-.3,38.26-.9,55.92,6.1,24.07,9.54,31.93,30,31.93,54.5v95.66h-31.22Z"/>
  <path class="cls-4" d="M484.87,222c-2.13-.27-.2-.61,5.02-2.77,5.23-2.17,13.75-6.17,18.07-8.27,4.32-2.1,4.45-2.31,7.7-7.32,3.25-5.01,9.61-14.83,17.58-28.99,7.96-14.16,17.53-32.66,23.51-46.95.69-1.65,1.33-3.24,1.93-4.78v27.96c-3.95,10.46-8.95,21.03-13.64,30.8-6.94,14.47-13.17,27.21-20.66,33.75-7.49,6.54-16.24,6.9-23.71,6.97-7.47.07-13.67-.14-15.8-.41"/>
  <g>
    <path class="cls-1" d="M421.68,301.9v-26.1h7.6v26.1h-7.6Z"/>
    <path class="cls-1" d="M434.35,301.9v-20.21h6.95v5.74l-1.34-1.68c.79-1.47,1.88-2.57,3.26-3.3,1.38-.73,2.94-1.1,4.68-1.1,1.61,0,3.07.32,4.38.95s2.33,1.61,3.09,2.93c.75,1.32,1.13,3.02,1.13,5.11v11.56h-7.29v-10.4c0-1.44-.3-2.49-.9-3.15-.6-.66-1.44-.99-2.51-.99-.77,0-1.47.17-2.11.5-.64.34-1.14.85-1.5,1.55-.36.7-.54,1.6-.54,2.72v9.77h-7.29Z"/>
    <path class="cls-1" d="M470.39,302.24c-1.89,0-3.62-.43-5.16-1.29-1.55-.86-2.78-2.06-3.7-3.62-.92-1.55-1.38-3.41-1.38-5.57s.46-3.98,1.38-5.54,2.16-2.75,3.7-3.6c1.55-.84,3.27-1.27,5.16-1.27,1.79,0,3.31.37,4.55,1.12,1.24.75,2.18,1.89,2.82,3.43.64,1.54.96,3.49.96,5.85s-.31,4.39-.92,5.93-1.54,2.68-2.76,3.43c-1.23.75-2.78,1.12-4.65,1.12ZM471.93,296.61c.82,0,1.55-.19,2.21-.56.65-.37,1.17-.93,1.56-1.66.38-.73.58-1.61.58-2.63s-.19-1.88-.58-2.59c-.38-.71-.9-1.25-1.56-1.62-.65-.37-1.39-.56-2.21-.56s-1.59.19-2.25.56c-.65.37-1.17.91-1.56,1.62-.38.71-.58,1.57-.58,2.59s.19,1.9.58,2.63c.38.73.9,1.29,1.56,1.66.65.37,1.4.56,2.25.56ZM476.5,301.9v-3.47l.04-6.67-.38-6.67v-10.85h7.29v27.67h-6.95Z"/>
    <path class="cls-1" d="M491.77,279.45c-1.33,0-2.41-.36-3.22-1.08-.82-.72-1.23-1.62-1.23-2.68s.41-1.96,1.23-2.68c.82-.72,1.89-1.08,3.22-1.08s2.41.34,3.22,1.03c.82.68,1.23,1.56,1.23,2.63s-.4,2.04-1.21,2.78-1.89,1.1-3.24,1.1ZM488.13,301.9v-20.21h7.29v20.21h-7.29Z"/>
    <path class="cls-1" d="M506.71,302.24c-1.66,0-3.07-.27-4.22-.82-1.15-.55-2.03-1.29-2.63-2.24-.6-.94-.9-2-.9-3.17,0-1.24.33-2.32.98-3.23.65-.91,1.66-1.6,3.01-2.09,1.36-.48,3.11-.73,5.26-.73h4.91v3.69h-3.92c-1.18,0-2,.19-2.48.56-.47.37-.71.87-.71,1.49s.24,1.12.73,1.49c.49.37,1.15.56,2,.56.79,0,1.52-.19,2.17-.58.65-.38,1.13-.97,1.44-1.77l1,2.61c-.38,1.39-1.13,2.44-2.25,3.15-1.11.71-2.58,1.06-4.4,1.06ZM512.85,301.9v-3.77l-.5-.93v-6.93c0-1.12-.35-1.98-1.06-2.59-.7-.61-1.82-.91-3.36-.91-1,0-2.01.16-3.03.47-1.02.31-1.89.74-2.61,1.29l-2.46-4.81c1.18-.75,2.59-1.32,4.24-1.73,1.65-.41,3.29-.62,4.93-.62,3.38,0,5.99.75,7.85,2.26,1.86,1.5,2.78,3.86,2.78,7.07v11.22h-6.79Z"/>
    <path class="cls-1" d="M523.37,287.81l2.88-9.69,1.04,4.03c-1.28,0-2.33-.37-3.15-1.1-.82-.73-1.23-1.72-1.23-2.96s.42-2.28,1.25-3.04c.83-.76,1.88-1.14,3.13-1.14s2.29.38,3.11,1.14c.82.76,1.23,1.77,1.23,3.04,0,.35-.03.7-.08,1.06-.05.36-.16.78-.33,1.27-.17.48-.44,1.14-.83,1.96l-2.46,5.44h-4.57Z"/>
    <path class="cls-1" d="M541.87,302.24c-1.77,0-3.49-.2-5.16-.6-1.68-.4-3.03-.9-4.05-1.49l2.19-4.85c.97.57,2.11,1.03,3.42,1.36,1.3.33,2.58.5,3.84.5s2.08-.12,2.55-.37c.47-.25.71-.58.71-1.01,0-.4-.22-.69-.67-.88-.45-.19-1.04-.33-1.77-.43-.73-.1-1.53-.21-2.4-.33s-1.75-.29-2.63-.5c-.88-.21-1.69-.53-2.42-.97s-1.31-1.03-1.75-1.77c-.44-.75-.65-1.69-.65-2.83,0-1.29.39-2.44,1.17-3.45.78-1.01,1.93-1.8,3.44-2.39,1.51-.58,3.35-.88,5.53-.88,1.46,0,2.94.14,4.43.43,1.5.29,2.76.71,3.78,1.29l-2.19,4.81c-1.02-.57-2.05-.96-3.07-1.17-1.02-.21-2-.32-2.92-.32-1.23,0-2.09.14-2.59.41-.5.27-.75.61-.75,1.01s.22.7.65.91,1.02.37,1.75.48c.73.11,1.53.22,2.4.34.87.11,1.75.28,2.63.5.88.22,1.69.55,2.42.99s1.31,1.02,1.75,1.75c.43.73.65,1.67.65,2.82,0,1.24-.39,2.36-1.17,3.36-.78.99-1.93,1.79-3.46,2.39s-3.41.9-5.66.9Z"/>
    <path class="cls-1" d="M566.82,301.9v-26.1h7.6v20.25h12.82v5.85h-20.42Z"/>
    <path class="cls-1" d="M596.73,302.24c-1.66,0-3.07-.27-4.22-.82-1.15-.55-2.03-1.29-2.63-2.24-.6-.94-.9-2-.9-3.17,0-1.24.33-2.32.98-3.23.65-.91,1.66-1.6,3.01-2.09,1.36-.48,3.11-.73,5.26-.73h4.91v3.69h-3.92c-1.18,0-2,.19-2.48.56-.47.37-.71.87-.71,1.49s.24,1.12.73,1.49c.49.37,1.15.56,2,.56.79,0,1.52-.19,2.17-.58.65-.38,1.13-.97,1.44-1.77l1,2.61c-.38,1.39-1.13,2.44-2.25,3.15-1.11.71-2.58,1.06-4.4,1.06ZM602.87,301.9v-3.77l-.5-.93v-6.93c0-1.12-.35-1.98-1.06-2.59s-1.82-.91-3.36-.91c-1,0-2.01.16-3.03.47-1.02.31-1.89.74-2.61,1.29l-2.46-4.81c1.18-.75,2.59-1.32,4.24-1.73s3.29-.62,4.93-.62c3.38,0,6,.75,7.85,2.26s2.78,3.86,2.78,7.07v11.22h-6.79Z"/>
    <path class="cls-1" d="M614.27,301.9v-20.21h6.95v5.89l-1.04-1.68c.61-1.52,1.61-2.65,2.99-3.41s3.06-1.14,5.03-1.14v6.38c-.33-.05-.62-.08-.86-.09-.24-.01-.51-.02-.79-.02-1.48,0-2.69.39-3.61,1.17-.92.78-1.38,2.06-1.38,3.82v9.28h-7.29Z"/>
    <path class="cls-1" d="M639.91,300.86c-1.84,0-3.54-.4-5.09-1.21-1.55-.81-2.79-1.94-3.72-3.39s-1.4-3.17-1.4-5.16.47-3.71,1.4-5.16,2.17-2.58,3.72-3.37c1.55-.79,3.24-1.19,5.09-1.19s3.28.34,4.53,1.03,2.21,1.75,2.86,3.19c.65,1.44.98,3.28.98,5.52s-.33,4.08-.98,5.52-1.61,2.51-2.86,3.21c-1.25.7-2.76,1.04-4.53,1.04ZM641.18,309.47c-2,0-3.9-.22-5.7-.67-1.8-.45-3.35-1.11-4.62-1.98l2.65-4.96c.87.67,1.95,1.2,3.24,1.58,1.29.39,2.55.58,3.78.58,1.97,0,3.39-.42,4.26-1.25s1.31-2.04,1.31-3.63v-2.39l.38-5.67-.04-5.7v-3.69h6.95v16.52c0,3.83-1.06,6.66-3.19,8.5-2.12,1.84-5.13,2.76-9.02,2.76ZM641.64,295.23c.87,0,1.64-.17,2.32-.52.68-.35,1.21-.83,1.61-1.45.4-.62.59-1.34.59-2.16s-.2-1.54-.59-2.16c-.4-.62-.93-1.1-1.61-1.44-.68-.34-1.45-.5-2.32-.5s-1.65.17-2.34.5c-.69.33-1.24.81-1.63,1.44s-.59,1.34-.59,2.16.2,1.54.59,2.16c.4.62.94,1.11,1.63,1.45.69.35,1.47.52,2.34.52Z"/>
    <path class="cls-1" d="M668.97,302.24c-2.46,0-4.6-.45-6.43-1.36-1.83-.91-3.25-2.15-4.26-3.73-1.01-1.58-1.52-3.37-1.52-5.39s.49-3.81,1.48-5.39c.98-1.58,2.35-2.81,4.09-3.69,1.74-.88,3.7-1.32,5.87-1.32,2.05,0,3.92.4,5.6,1.21s3.03,2,4.03,3.56c1,1.57,1.5,3.47,1.5,5.71,0,.25-.01.53-.04.86s-.05.62-.08.89h-16.47v-3.73h12.59l-2.76,1.04c.03-.92-.15-1.71-.52-2.39-.37-.67-.88-1.19-1.54-1.57s-1.41-.56-2.28-.56-1.63.19-2.28.56-1.16.9-1.52,1.58-.54,1.49-.54,2.4v1.08c0,1,.21,1.85.63,2.57.42.72,1.03,1.27,1.82,1.66.79.39,1.74.58,2.84.58,1.02,0,1.9-.14,2.63-.43.73-.29,1.45-.73,2.17-1.32l3.84,3.88c-1,1.07-2.23,1.88-3.68,2.44-1.46.56-3.19.84-5.18.84Z"/>
    <path class="cls-1" d="M690.28,302.24c-1.77,0-3.49-.2-5.16-.6-1.68-.4-3.03-.9-4.05-1.49l2.19-4.85c.97.57,2.11,1.03,3.42,1.36,1.3.33,2.58.5,3.84.5s2.08-.12,2.55-.37c.47-.25.71-.58.71-1.01,0-.4-.22-.69-.67-.88-.45-.19-1.04-.33-1.77-.43-.73-.1-1.53-.21-2.4-.33s-1.75-.29-2.63-.5c-.88-.21-1.69-.53-2.42-.97s-1.31-1.03-1.75-1.77c-.44-.75-.65-1.69-.65-2.83,0-1.29.39-2.44,1.17-3.45.78-1.01,1.93-1.8,3.44-2.39,1.51-.58,3.35-.88,5.53-.88,1.46,0,2.94.14,4.43.43,1.5.29,2.76.71,3.78,1.29l-2.19,4.81c-1.02-.57-2.05-.96-3.07-1.17-1.02-.21-2-.32-2.92-.32-1.23,0-2.09.14-2.59.41-.5.27-.75.61-.75,1.01s.22.7.65.91,1.02.37,1.75.48c.73.11,1.53.22,2.4.34.87.11,1.75.28,2.63.5.88.22,1.69.55,2.42.99s1.31,1.02,1.75,1.75c.43.73.65,1.67.65,2.82,0,1.24-.39,2.36-1.17,3.36-.78.99-1.93,1.79-3.46,2.39s-3.41.9-5.66.9Z"/>
    <path class="cls-1" d="M701.52,286.95v-5.26h15.09v5.26h-15.09ZM713,302.24c-2.66,0-4.74-.64-6.22-1.92-1.49-1.28-2.23-3.21-2.23-5.8v-17.34h7.29v17.26c0,.72.2,1.29.61,1.7.41.41.93.62,1.57.62.87,0,1.61-.21,2.23-.63l1.8,4.96c-.61.4-1.37.69-2.27.88-.9.19-1.83.28-2.8.28Z"/>
    <path class="cls-1" d="M729.16,301.9l11.86-26.1h7.49l11.9,26.1h-7.91l-9.29-22.48h2.99l-9.29,22.48h-7.75ZM735.65,296.83l1.96-5.44h13.13l1.96,5.44h-17.04Z"/>
    <path class="cls-1" d="M766.9,301.9l-8.56-20.21h7.49l6.83,16.89h-3.76l7.18-16.89h6.95l-8.6,20.21h-7.52Z"/>
    <path class="cls-1" d="M788.55,279.45c-1.33,0-2.41-.36-3.22-1.08s-1.23-1.62-1.23-2.68.41-1.96,1.23-2.68c.82-.72,1.89-1.08,3.22-1.08s2.41.34,3.22,1.03,1.23,1.56,1.23,2.63-.4,2.04-1.21,2.78c-.81.73-1.89,1.1-3.24,1.1ZM784.9,301.9v-20.21h7.29v20.21h-7.29Z"/>
    <path class="cls-1" d="M803.48,302.24c-1.66,0-3.07-.27-4.22-.82-1.15-.55-2.03-1.29-2.63-2.24-.6-.94-.9-2-.9-3.17,0-1.24.33-2.32.98-3.23.65-.91,1.66-1.6,3.01-2.09,1.36-.48,3.11-.73,5.26-.73h4.91v3.69h-3.92c-1.18,0-2,.19-2.48.56-.47.37-.71.87-.71,1.49s.24,1.12.73,1.49c.49.37,1.15.56,2,.56.79,0,1.52-.19,2.17-.58.65-.38,1.13-.97,1.44-1.77l1,2.61c-.38,1.39-1.13,2.44-2.25,3.15-1.11.71-2.58,1.06-4.4,1.06ZM809.63,301.9v-3.77l-.5-.93v-6.93c0-1.12-.35-1.98-1.06-2.59s-1.82-.91-3.36-.91c-1,0-2.01.16-3.03.47-1.02.31-1.89.74-2.61,1.29l-2.46-4.81c1.18-.75,2.59-1.32,4.24-1.73s3.29-.62,4.93-.62c3.38,0,6,.75,7.85,2.26s2.78,3.86,2.78,7.07v11.22h-6.79Z"/>
    <path class="cls-1" d="M818.84,286.95v-5.26h15.09v5.26h-15.09ZM830.32,302.24c-2.66,0-4.74-.64-6.22-1.92-1.49-1.28-2.23-3.21-2.23-5.8v-17.34h7.29v17.26c0,.72.2,1.29.61,1.7.41.41.93.62,1.57.62.87,0,1.61-.21,2.23-.63l1.8,4.96c-.61.4-1.37.69-2.27.88-.9.19-1.83.28-2.8.28Z"/>
    <path class="cls-1" d="M841.83,279.45c-1.33,0-2.41-.36-3.22-1.08s-1.23-1.62-1.23-2.68.41-1.96,1.23-2.68c.82-.72,1.89-1.08,3.22-1.08s2.41.34,3.22,1.03,1.23,1.56,1.23,2.63-.4,2.04-1.21,2.78c-.81.73-1.89,1.1-3.24,1.1ZM838.19,301.9v-20.21h7.29v20.21h-7.29Z"/>
    <path class="cls-1" d="M860.64,302.24c-2.28,0-4.3-.45-6.07-1.34s-3.15-2.13-4.17-3.71c-1.01-1.58-1.52-3.39-1.52-5.42s.51-3.84,1.52-5.41c1.01-1.57,2.4-2.79,4.17-3.67,1.77-.88,3.79-1.32,6.07-1.32s4.31.44,6.08,1.32c1.78.88,3.17,2.11,4.17,3.67,1,1.57,1.5,3.37,1.5,5.41s-.5,3.85-1.5,5.42c-1,1.58-2.39,2.82-4.17,3.71-1.78.89-3.81,1.34-6.08,1.34ZM860.64,296.61c.84,0,1.59-.19,2.25-.56s1.17-.93,1.55-1.66.58-1.61.58-2.63-.19-1.88-.58-2.59c-.38-.71-.9-1.25-1.55-1.62s-1.4-.56-2.25-.56-1.55.19-2.21.56-1.18.91-1.57,1.62c-.4.71-.59,1.57-.59,2.59s.2,1.9.59,2.63.92,1.29,1.57,1.66,1.39.56,2.21.56Z"/>
    <path class="cls-1" d="M875.77,301.9v-20.21h6.95v5.74l-1.34-1.68c.79-1.47,1.88-2.57,3.26-3.3,1.38-.73,2.94-1.1,4.68-1.1,1.61,0,3.07.32,4.38.95,1.3.63,2.33,1.61,3.09,2.93s1.13,3.02,1.13,5.11v11.56h-7.29v-10.4c0-1.44-.3-2.49-.9-3.15-.6-.66-1.44-.99-2.51-.99-.77,0-1.47.17-2.11.5-.64.34-1.14.85-1.5,1.55-.36.7-.54,1.6-.54,2.72v9.77h-7.29Z"/>
    <path class="cls-1" d="M914,301.9v-26.1h12.28c2.46,0,4.57.39,6.35,1.16,1.78.77,3.15,1.88,4.13,3.34s1.46,3.18,1.46,5.16-.49,3.67-1.46,5.11c-.97,1.44-2.35,2.55-4.13,3.34-1.78.78-3.9,1.17-6.35,1.17h-8.06l3.38-3.21v10.03h-7.6ZM921.6,292.65l-3.38-3.39h7.6c1.59,0,2.77-.33,3.55-1.01.78-.67,1.17-1.6,1.17-2.8s-.39-2.16-1.17-2.83c-.78-.67-1.96-1.01-3.55-1.01h-7.6l3.38-3.39v14.43Z"/>
    <path class="cls-1" d="M951.97,302.24c-2.28,0-4.3-.45-6.07-1.34s-3.15-2.13-4.17-3.71c-1.01-1.58-1.52-3.39-1.52-5.42s.51-3.84,1.52-5.41c1.01-1.57,2.4-2.79,4.17-3.67,1.77-.88,3.79-1.32,6.07-1.32s4.31.44,6.08,1.32c1.78.88,3.17,2.11,4.17,3.67,1,1.57,1.5,3.37,1.5,5.41s-.5,3.85-1.5,5.42c-1,1.58-2.39,2.82-4.17,3.71-1.78.89-3.81,1.34-6.08,1.34ZM951.97,296.61c.84,0,1.59-.19,2.25-.56s1.17-.93,1.55-1.66.58-1.61.58-2.63-.19-1.88-.58-2.59c-.38-.71-.9-1.25-1.55-1.62s-1.4-.56-2.25-.56-1.55.19-2.21.56-1.18.91-1.57,1.62c-.4.71-.59,1.57-.59,2.59s.2,1.9.59,2.63.92,1.29,1.57,1.66,1.39.56,2.21.56Z"/>
    <path class="cls-1" d="M967.09,301.9v-20.21h6.95v5.89l-1.04-1.68c.61-1.52,1.61-2.65,2.99-3.41s3.06-1.14,5.03-1.14v6.38c-.33-.05-.62-.08-.86-.09-.24-.01-.51-.02-.79-.02-1.48,0-2.69.39-3.61,1.17-.92.78-1.38,2.06-1.38,3.82v9.28h-7.29Z"/>
    <path class="cls-1" d="M982.49,286.95v-5.26h15.09v5.26h-15.09ZM993.96,302.24c-2.66,0-4.74-.64-6.22-1.92-1.49-1.28-2.23-3.21-2.23-5.8v-17.34h7.29v17.26c0,.72.2,1.29.61,1.7.41.41.93.62,1.57.62.87,0,1.61-.21,2.23-.63l1.8,4.96c-.61.4-1.37.69-2.27.88-.9.19-1.83.28-2.8.28Z"/>
    <path class="cls-1" d="M1007.75,302.24c-1.66,0-3.07-.27-4.22-.82-1.15-.55-2.03-1.29-2.63-2.24-.6-.94-.9-2-.9-3.17,0-1.24.33-2.32.98-3.23.65-.91,1.66-1.6,3.01-2.09,1.36-.48,3.11-.73,5.26-.73h4.91v3.69h-3.92c-1.18,0-2,.19-2.48.56-.47.37-.71.87-.71,1.49s.24,1.12.73,1.49c.49.37,1.15.56,2,.56.79,0,1.52-.19,2.17-.58.65-.38,1.13-.97,1.44-1.77l1,2.61c-.38,1.39-1.13,2.44-2.25,3.15-1.11.71-2.58,1.06-4.4,1.06ZM1013.89,301.9v-3.77l-.5-.93v-6.93c0-1.12-.35-1.98-1.06-2.59s-1.82-.91-3.36-.91c-1,0-2.01.16-3.03.47-1.02.31-1.89.74-2.61,1.29l-2.46-4.81c1.18-.75,2.59-1.32,4.24-1.73s3.29-.62,4.93-.62c3.38,0,6,.75,7.85,2.26s2.78,3.86,2.78,7.07v11.22h-6.79Z"/>
    <path class="cls-1" d="M1025.29,301.9v-27.67h7.29v27.67h-7.29Z"/>
  </g>
</svg>