<?xml version="1.0" encoding="UTF-8"?>
<svg id="Layer_1" data-name="Layer 1" xmlns="http://www.w3.org/2000/svg" viewBox="0 0 541.39 177.83">
  <defs>
    <style>
      .cls-1 {
        fill: #f7941d;
        fill-rule: evenodd;
      }
    </style>
  </defs>
  <path class="cls-1" d="M540.92,37.38c-1.12-2.96-4.13-4.65-6.58-6.63-29.71-24.07-59.47-15.17-59.47-15.17-2.45,1.1-153.96,55.81-153.96,55.81-2.54.91-6.64.8-9.11-.23L142.35.48c-2.48-1.03-6.09-.35-8.02,1.52l-12.86,12.48c-1.93,1.87-2.12,5.1-.41,7.18l69.73,84.99c1.7,2.08,1.02,4.52-1.5,5.43l-93.34,33.44c-2.53.91-6.57.67-8.97-.53,0,0-55.36-27.64-68.3-34.29-2.46-1.49-4.81-.95-6.73.39-4.33,3.01-10.36,8.59-10.36,8.59-1.97,1.82-2.12,4.95-.32,6.95l32.66,36.22c1.8,2,5.56,3.91,8.23,4.18l109.02,10.75c2.68.27,6.95-.21,9.5-1.05,0,0,322.65-105.25,324.7-106.99,0,0,42.05-13.81,53.54-25.8,2.18-2.28,3.12-3.57,2.01-6.53"/>
</svg>